<svg version="1.1" viewBox="0.0 0.0 365.6010498687664 108.48818897637796" fill="none" stroke="none" stroke-linecap="square" stroke-miterlimit="10" xmlns:xlink="http://www.w3.org/1999/xlink" xmlns="http://www.w3.org/2000/svg"><clipPath id="p.0"><path d="m0 0l365.60104 0l0 108.48819l-365.60104 0l0 -108.48819z" clip-rule="nonzero"/></clipPath><g clip-path="url(#p.0)"><path fill="#000000" fill-opacity="0.0" d="m0 0l365.60104 0l0 108.48819l-365.60104 0z" fill-rule="evenodd"/><path fill="#000000" fill-opacity="0.0" d="m0 0l416.0315 0l0 314.96063l-416.0315 0z" fill-rule="evenodd"/><path fill="#000000" d="m25.84375 24.08025l21.765625 -15.015625l14.234375 0l-26.5 18.875l28.28125 20.484375l-15.5 0l-22.28125 -16.359375l0 16.359375l-10.6875 0l0 -39.359375l10.6875 0l0 15.015625z" fill-rule="nonzero"/><path fill="#000000" d="m107.680405 32.345875q0 4.328125 -1.578125 7.484375q-1.5625 3.15625 -4.3125 5.203125q-2.734375 2.046875 -6.46875 3.046875q-3.71875 0.984375 -8.03125 0.984375q-4.328125 0 -8.078125 -0.984375q-3.75 -1.0 -6.515625 -3.046875q-2.765625 -2.046875 -4.34375 -5.203125q-1.5625 -3.15625 -1.5625 -7.484375q0 -2.890625 0.71875 -5.234375q0.734375 -2.359375 2.046875 -4.21875q1.3125 -1.875 3.171875 -3.234375q1.859375 -1.359375 4.140625 -2.25q2.296875 -0.90625 4.921875 -1.34375q2.625 -0.4375 5.5 -0.4375q4.3125 0 8.03125 0.984375q3.734375 0.984375 6.46875 3.046875q2.75 2.046875 4.3125 5.203125q1.578125 3.140625 1.578125 7.484375zm-3.015625 0q0 -3.421875 -1.125 -6.046875q-1.109375 -2.625 -3.296875 -4.421875q-2.171875 -1.796875 -5.421875 -2.71875q-3.234375 -0.921875 -7.53125 -0.921875q-4.28125 0 -7.5625 0.9375q-3.265625 0.9375 -5.46875 2.734375q-2.203125 1.78125 -3.328125 4.421875q-1.125 2.640625 -1.125 6.015625q0 3.421875 1.125 6.046875q1.125 2.625 3.328125 4.421875q2.203125 1.78125 5.46875 2.71875q3.28125 0.921875 7.5625 0.921875q4.296875 0 7.53125 -0.921875q3.25 -0.9375 5.421875 -2.71875q2.1875 -1.796875 3.296875 -4.421875q1.125 -2.625 1.125 -6.046875zm35.460938 -13.640625q-0.6875 -0.21875 -1.890625 -0.453125q-1.203125 -0.25 -3.109375 -0.25q-2.625 0 -4.9375 0.640625q-2.296875 0.640625 -4.28125 1.75q-1.984375 1.09375 -3.671875 2.5625q-1.6875 1.46875 -3.046875 3.109375l0 22.359375l-2.921875 0l0 -32.203125l2.921875 0l0 6.5625q1.578125 -1.625 3.40625 -2.984375q1.84375 -1.359375 3.875 -2.328125q2.046875 -0.96875 4.28125 -1.515625q2.25 -0.5625 4.640625 -0.5625q0.8125 0 1.46875 0.046875q0.65625 0.03125 1.203125 0.09375q0.5625 0.046875 1.046875 0.125q0.5 0.0625 1.015625 0.15625l0 2.890625l0 0zm44.054688 13.640625q0 4.328125 -1.578125 7.484375q-1.5625 3.15625 -4.3125 5.203125q-2.734375 2.046875 -6.46875 3.046875q-3.71875 0.984375 -8.03125 0.984375q-4.328125 0 -8.078125 -0.984375q-3.75 -1.0 -6.515625 -3.046875q-2.765625 -2.046875 -4.34375 -5.203125q-1.5625 -3.15625 -1.5625 -7.484375q0 -2.890625 0.71875 -5.234375q0.734375 -2.359375 2.046875 -4.21875q1.3125 -1.875 3.171875 -3.234375q1.859375 -1.359375 4.140625 -2.25q2.296875 -0.90625 4.921875 -1.34375q2.625 -0.4375 5.5 -0.4375q4.3125 0 8.03125 0.984375q3.734375 0.984375 6.46875 3.046875q2.75 2.046875 4.3125 5.203125q1.578125 3.140625 1.578125 7.484375zm-3.015625 0q0 -3.421875 -1.125 -6.046875q-1.109375 -2.625 -3.296875 -4.421875q-2.171875 -1.796875 -5.421875 -2.71875q-3.234375 -0.921875 -7.53125 -0.921875q-4.28125 0 -7.5625 0.9375q-3.265625 0.9375 -5.46875 2.734375q-2.203125 1.78125 -3.328125 4.421875q-1.125 2.640625 -1.125 6.015625q0 3.421875 1.125 6.046875q1.125 2.625 3.328125 4.421875q2.203125 1.78125 5.46875 2.71875q3.28125 0.921875 7.5625 0.921875q4.296875 0 7.53125 -0.921875q3.25 -0.9375 5.421875 -2.71875q2.1875 -1.796875 3.296875 -4.421875q1.125 -2.625 1.125 -6.046875zm42.773438 16.078125l0 -21.265625q0 -2.671875 -0.71875 -4.390625q-0.71875 -1.71875 -2.046875 -2.71875q-1.3125 -1.015625 -3.21875 -1.40625q-1.890625 -0.40625 -4.265625 -0.40625q-2.734375 0 -5.375 0.671875q-2.640625 0.65625 -4.984375 1.6875q-2.34375 1.015625 -4.3125 2.265625q-1.96875 1.234375 -3.328125 2.375l0 23.1875l-2.921875 0l0 -32.203125l2.921875 0l0 5.640625q1.640625 -1.03125 3.625 -2.15625q1.984375 -1.140625 4.265625 -2.09375q2.28125 -0.953125 4.875 -1.5625q2.609375 -0.609375 5.5 -0.609375q3.25 0 5.671875 0.796875q2.4375 0.78125 4.03125 2.21875q1.609375 1.4375 2.40625 3.5q0.796875 2.046875 0.796875 4.578125l0 21.890625l-2.921875 0zm43.820328 0q-0.234375 -2.625 -1.296875 -4.75q-1.046875 -2.125 -2.703125 -3.765625q-1.640625 -1.640625 -3.78125 -2.8125q-2.125 -1.1875 -4.5156403 -1.953125q-2.390625 -0.78125 -4.953125 -1.140625q-2.546875 -0.375 -5.03125 -0.375l-5.0 0l0 14.796875l-2.921875 0l0 -32.203125l2.921875 0l0 14.828125l4.203125 0q2.5 0 4.984375 -0.453125q2.484375 -0.453125 4.75 -1.328125q2.2656403 -0.890625 4.2187653 -2.15625q1.953125 -1.28125 3.453125 -2.9375q1.5 -1.65625 2.453125 -3.640625q0.96875 -2.0 1.203125 -4.3125l3.03125 0q-0.234375 2.546875 -1.140625 4.625q-0.90625 2.078125 -2.21875 3.75q-1.3125 1.65625 -2.9375 2.90625q-1.609375 1.25 -3.28125 2.15625q-1.65625 0.90625 -3.2500153 1.5q-1.59375 0.59375 -2.875 0.90625q1.609375 0.25 3.5000153 0.78125q1.890625 0.53125 3.765625 1.40625q1.890625 0.875 3.671875 2.15625q1.78125 1.28125 3.203125 3.015625q1.421875 1.734375 2.375 3.96875q0.96875 2.21875 1.203125 5.03125l-3.03125 0zm40.578125 0l0 -3.5625q-1.6875 0.90625 -3.84375 1.6875q-2.140625 0.765625 -4.515625 1.34375q-2.375 0.5625 -4.890625 0.859375q-2.5 0.3125 -4.921875 0.3125q-3.140625 0 -5.640625 -0.578125q-2.484375 -0.5625 -4.21875 -1.671875q-1.734375 -1.109375 -2.671875 -2.765625q-0.9375 -1.65625 -0.9375 -3.828125q0 -2.15625 1.078125 -3.8125q1.09375 -1.65625 3.109375 -2.875q2.015625 -1.234375 4.859375 -2.09375q2.859375 -0.859375 6.375 -1.453125q3.515625 -0.59375 7.59375 -0.984375q4.09375 -0.390625 8.625 -0.640625l0 -2.46875q0 -1.5 -0.5625 -2.640625q-0.5625 -1.15625 -1.578125 -2.0q-1.0 -0.859375 -2.359375 -1.4375q-1.359375 -0.578125 -2.953125 -0.921875q-1.578125 -0.359375 -3.328125 -0.5q-1.734375 -0.15625 -3.5 -0.15625q-2.359375 0 -4.3125 0.234375q-1.9375 0.234375 -3.625 0.640625q-1.6875 0.40625 -3.234375 0.953125q-1.546875 0.53125 -3.125 1.140625l0 -3.421875q3.265625 -0.859375 6.953125 -1.5q3.6875 -0.65625 7.84375 -0.65625q3.515625 0 6.5625 0.609375q3.046875 0.59375 5.296875 1.90625q2.25 1.3125 3.53125 3.390625q1.296875 2.0625 1.296875 5.046875l0 21.84375l-2.90625 0zm0 -17.46875q-7.671875 0.421875 -13.09375 1.203125q-5.421875 0.765625 -8.875 1.890625q-3.4375 1.125 -5.046875 2.625q-1.609375 1.5 -1.609375 3.40625q0 1.546875 0.78125 2.75q0.796875 1.1875 2.265625 2.0q1.484375 0.796875 3.59375 1.21875q2.109375 0.40625 4.734375 0.40625q1.546875 0 3.1875 -0.171875q1.65625 -0.1875 3.296875 -0.5q1.640625 -0.3125 3.234375 -0.75q1.59375 -0.4375 3.0 -0.953125q1.40625 -0.515625 2.5625 -1.09375q1.171875 -0.59375 1.96875 -1.203125l0 -10.828125z" fill-rule="nonzero"/><path fill="#980000" d="m104.65625 93.84l-11.25 0l-18.09375 -35.78125l10.78125 0l13.015625 26.921875l12.984375 -26.921875l10.78125 0l-18.21875 35.78125z" fill-rule="nonzero"/><path fill="#000000" d="m128.56302 93.84l0 -32.203125l2.921875 0l0 32.203125l-2.921875 0zm37.640625 -29.71875q-0.6875 -0.21875 -1.890625 -0.453125q-1.203125 -0.25 -3.109375 -0.25q-2.625 0 -4.9375 0.640625q-2.296875 0.640625 -4.28125 1.75q-1.984375 1.09375 -3.671875 2.5625q-1.6875 1.46875 -3.046875 3.109375l0 22.359375l-2.921875 0l0 -32.203125l2.921875 0l0 6.5625q1.578125 -1.625 3.40625 -2.984375q1.84375 -1.359375 3.875 -2.328125q2.046875 -0.96875 4.28125 -1.515625q2.25 -0.5625 4.640625 -0.5625q0.8125 0 1.46875 0.046875q0.65625 0.03125 1.203125 0.09375q0.5625 0.046875 1.046875 0.125q0.5 0.0625 1.015625 0.15625l0 2.890625l0 0zm8.2421875 -2.484375l0 21.25q-0.015625 2.703125 0.6875 4.4375q0.703125 1.734375 2.015625 2.734375q1.328125 0.984375 3.21875 1.375q1.890625 0.390625 4.25 0.390625q2.75 0 5.375 -0.671875q2.625 -0.671875 4.9375 -1.6875q2.328125 -1.015625 4.25 -2.25q1.9375 -1.25 3.296875 -2.40625l0 -23.171875l2.984375 0l0 32.203125l-2.984375 0l0 -5.671875q-1.640625 1.046875 -3.59375 2.1875q-1.9375 1.140625 -4.203125 2.09375q-2.25 0.9375 -4.828125 1.546875q-2.578125 0.625 -5.46875 0.625q-3.25 0 -5.6875 -0.828125q-2.421875 -0.828125 -4.03125 -2.296875q-1.59375 -1.484375 -2.390625 -3.5q-0.796875 -2.03125 -0.796875 -4.46875l0 -21.890625l2.96875 0zm67.88281 4.75q-0.921875 -0.4375 -2.125 -0.9375q-1.1875 -0.515625 -2.71875 -0.90625q-1.53125 -0.40625 -3.453125 -0.671875q-1.921875 -0.265625 -4.265625 -0.265625q-2.84375 0 -5.0625 0.328125q-2.203125 0.328125 -3.75 1.015625q-1.53125 0.6875 -2.34375 1.75q-0.796875 1.046875 -0.796875 2.5q0 1.21875 0.75 2.140625q0.765625 0.90625 2.0625 1.609375q1.3125 0.703125 3.046875 1.28125q1.75 0.578125 3.703125 1.078125q1.96875 0.5 4.03125 1.015625q2.078125 0.515625 4.03125 1.125q1.96875 0.59375 3.703125 1.328125q1.75 0.734375 3.046875 1.71875q1.3125 0.984375 2.0625 2.25q0.765625 1.265625 0.765625 2.9375q0 1.796875 -0.6875 3.15625q-0.671875 1.34375 -1.828125 2.3125q-1.15625 0.96875 -2.71875 1.625q-1.5625 0.640625 -3.328125 1.015625q-1.765625 0.375 -3.65625 0.53125q-1.890625 0.15625 -3.71875 0.15625q-4.1875 0 -7.609375 -0.625q-3.40625 -0.609375 -6.5 -1.65625l0 -3.59375q3.1875 1.90625 6.734375 2.609375q3.5625 0.703125 7.46875 0.703125q2.765625 0 5.109375 -0.328125q2.34375 -0.328125 4.046875 -1.046875q1.71875 -0.71875 2.671875 -1.859375q0.953125 -1.15625 0.953125 -2.8125q0 -1.34375 -0.765625 -2.34375q-0.765625 -1.015625 -2.0625 -1.765625q-1.296875 -0.765625 -3.046875 -1.34375q-1.75 -0.59375 -3.703125 -1.09375q-1.9375 -0.515625 -4.015625 -0.984375q-2.0625 -0.484375 -4.015625 -1.046875q-1.9375 -0.5625 -3.6875 -1.265625q-1.75 -0.703125 -3.046875 -1.65625q-1.296875 -0.953125 -2.0625 -2.1875q-0.765625 -1.25 -0.765625 -2.890625q0 -1.609375 0.609375 -2.859375q0.609375 -1.265625 1.671875 -2.171875q1.078125 -0.921875 2.5 -1.53125q1.4375 -0.625 3.0625 -0.984375q1.625 -0.375 3.375 -0.53125q1.765625 -0.171875 3.484375 -0.171875q1.875 0 3.546875 0.171875q1.671875 0.15625 3.234375 0.4375q1.5625 0.265625 3.046875 0.625q1.484375 0.34375 3.015625 0.734375l0 3.375z" fill-rule="nonzero"/><path fill="#980000" d="m266.50052 70.57437q1.984375 1.96875 1.984375 5.015625q0 3.046875 -1.984375 5.015625q-1.96875 1.984375 -5.015625 1.984375q-3.046875 0 -5.015625 -1.984375q-1.984375 -1.96875 -1.984375 -5.015625q0 -3.046875 1.984375 -5.015625q1.96875 -1.984375 5.015625 -1.984375q3.046875 0 5.015625 1.984375zm-2.34375 7.6875q1.015625 -1.03125 1.015625 -2.671875q0 -1.640625 -1.015625 -2.671875q-1.03125 -1.015625 -2.671875 -1.015625q-1.640625 0 -2.671875 1.015625q-1.015625 1.03125 -1.015625 2.671875q0 1.640625 1.015625 2.671875q1.03125 1.015625 2.671875 1.015625q1.640625 0 2.671875 -1.015625z" fill-rule="nonzero"/><path fill="#000000" d="m309.50052 71.5275q0 2.40625 -0.796875 4.265625q-0.78125 1.84375 -2.46875 3.109375q-1.6875 1.265625 -4.34375 1.921875q-2.65625 0.640625 -6.40625 0.640625l-14.46875 0l0 12.375l-2.921875 0l0 -32.203125l17.390625 0q3.75 0 6.40625 0.640625q2.65625 0.640625 4.34375 1.890625q1.6875 1.234375 2.46875 3.09375q0.796875 1.84375 0.796875 4.265625zm-3.03125 0q0 -2.296875 -0.765625 -3.703125q-0.75 -1.40625 -2.34375 -2.171875q-1.578125 -0.765625 -4.0 -1.015625q-2.421875 -0.265625 -5.75 -0.265625l-12.59375 0l0 14.34375l12.59375 0q1.28125 0 2.75 0.015625q1.46875 0.015625 2.890625 -0.140625q1.4375 -0.15625 2.734375 -0.53125q1.296875 -0.390625 2.296875 -1.1875q1.0 -0.796875 1.59375 -2.078125q0.59375 -1.296875 0.59375 -3.265625zm13.8515625 11.171875q0 2.1875 0.34375 3.765625q0.359375 1.5625 1.484375 2.578125q1.125 1.0 3.25 1.484375q2.125 0.46875 5.640625 0.46875l14.546875 0l0 2.84375l-15.140625 0q-3.859375 0 -6.390625 -0.625q-2.515625 -0.625 -4.0 -1.921875q-1.484375 -1.296875 -2.078125 -3.28125q-0.578125 -2.0 -0.578125 -4.75l0 -21.625l2.921875 0l0 21.0625z" fill-rule="nonzero"/></g></svg>